<svg width="120" height="120" viewBox="0 0 120 120" fill="none" xmlns="http://www.w3.org/2000/svg">
<rect width="120" height="120" fill="url(#paint0_linear_2047_21185)"/>
<path fill-rule="evenodd" clip-rule="evenodd" d="M31.6741 30.148L39.1411 36.3074L49.9283 41.9607L57.5777 46.8855L61.1109 51.5156L61.1925 45.8918L63.4059 41.4801L66.6518 39.4277L70.1203 38.184L76.1118 39.2285L77.5471 34.3108L78.4672 34.2214L79.3502 36.1265L79.4329 31.6L81.6304 29.1503L83.0657 30.4701L83.194 27.9686L85.1329 25.8583L87.148 24.7345L87.5477 26.0909L89.4621 23.1911L91.2123 22.8751L90.5953 25.4183L91.9183 24.2356L93.5094 23.7865L91.243 29.0842L89.689 43.3445L87.6166 47.485L87.5975 52.4687L86.1134 57.9676L85.8929 65.5484L83.6583 66.792L82.4011 69.7203L76.9874 74.384L74.1432 75.1277L72.3634 77.0989L72.8192 79.1229L71.5789 82.2269L72.5351 85.3624L72.6899 86.5675L71.8811 87.4454L69.7397 84.4947L69.3708 90.018L67.8995 90.4803L66.1737 87.8355L65.1105 90.0627L64.061 91.0188L62.7179 90.6175L62.1879 88.7063L60.6158 90.3472L58.925 91.0493L58.1565 90.1166L58.1279 88.7022L56.2017 90.018L54.9042 90.2161L54.4855 88.3984L55.8042 85.1267L52.7258 87.9574L51.1304 88.1312L50.6894 86.5299L51.0329 84.3779L48.9308 85.6276L48.0001 85.2994L48.2089 83.3415L49.3792 81.2322L46.4216 82.3214L46.0326 81.474L46.87 79.9601L48.7633 78.5793L57.3561 74.0578L49.3463 76.03L50.5834 74.004L61.29 71.3267L61.7363 68.9288L60.7462 68.5498L58.6324 68.3679L56.4678 68.7469L55.4745 67.8396L54.3731 67.9016L52.9982 67.927L52.0039 66.7422L49.447 66.5258L49.4502 64.5852L46.0559 64.322L46.0591 62.5266L43.8944 62.6191L42.4771 61.5766L42.3107 60.3005L40.1662 59.9225L37.7927 57.4545L39.085 57.0877L36.2323 56.0208L34.6359 54.5841L36.0065 53.5488L33.3511 52.5419L31.3603 49.5638L32.3271 48.5671L31.1621 48.3578L29.0367 44.8453L29.8147 43.0895L27.9978 40.8278L27.8589 38.3964L30.0469 38.4655L28.0974 35.7688L28.5713 34.5343L29.4013 34.1381L28.8607 32.87L29.467 31.7605L30.9225 32.8843L30.5865 30.7089L31.6741 30.148Z" fill="#FEFEFE"/>
<path d="M31.9783 29.8067L39.4093 35.9365C47.3089 40.0769 50.6841 41.9069 57.9073 46.5573L60.6624 50.1674L60.726 45.7862C61.4914 44.2468 62.2663 42.7095 63.0402 41.1743L66.4387 39.0253L70.0768 37.7207L75.7757 38.7144L77.1824 33.8943L78.7555 33.7429L78.9198 34.0964L78.9686 31.4303L81.5975 28.499L82.6481 29.4643L82.7339 27.7888C83.4314 27.0278 84.1268 26.2637 84.8297 25.5077C85.6947 25.019 86.566 24.5394 87.4342 24.0558L87.713 25.0007L89.1759 22.7857L91.8313 22.3062L91.3999 24.0842L91.6797 23.8343L94.3119 23.0926L91.702 29.193L90.1469 43.4655L88.084 47.5866L88.065 52.5277L86.5798 58.0306L86.354 65.8106L84.0304 67.104L82.7933 69.9865C80.9329 71.5817 79.0704 73.18 77.2206 74.7864L74.404 75.523L72.8701 77.2219L73.3068 79.1585L72.0729 82.2473C72.6867 84.2611 72.939 84.8331 73.1817 86.7108L71.8365 88.1698L70.1213 85.8075L69.8182 90.3493L67.697 91.0158L66.2373 88.7785L65.4974 90.329L64.1829 91.5249L62.331 90.9721L61.9547 89.6137L60.8946 90.7201L58.7808 91.598L57.6922 90.2761L57.6773 89.5608L56.3851 90.4438L54.5427 90.7262L53.9989 88.3639L54.6095 86.848L52.9357 88.3873L50.7806 88.621L50.2113 86.5533L50.4159 85.2731L48.9827 86.1255L47.4986 85.6013L47.753 83.2064L48.3774 82.0806L46.1725 82.8925L45.5131 81.4558L46.5054 79.6614C49.1746 77.6974 50.6746 77.0603 53.8759 75.3757L48.3785 76.7301L50.2792 73.6159L60.8819 70.965L61.2094 69.2082L60.637 68.9898L58.6557 68.8191L56.3183 69.2286L55.2996 68.2989C54.4463 68.3466 53.6353 68.3629 52.7777 68.3791L51.7654 67.1731L48.9795 66.9363L48.9817 64.9987L45.5873 64.7356L45.5905 62.9951L43.7439 63.0743L42.0351 61.8175L41.8867 60.6815L39.9266 60.335L36.9394 57.229L37.6422 57.0288L35.979 56.407L33.9193 54.5537L35.0769 53.6778L33.0394 52.9056L30.7698 49.512L31.4059 48.8567L30.8653 48.7591L28.5151 44.8758L29.2783 43.1536L27.5398 40.9894L27.366 37.931L29.1342 37.9869L27.5748 35.8309L28.196 34.2092L28.8045 33.9186L28.3466 32.8457L29.3176 31.0676L30.2833 31.8134L30.0744 30.462L31.7356 29.6055L31.9783 29.8056V29.8067ZM38.8358 36.6478L31.6126 30.6886L31.0974 30.9548L31.5617 33.9552L29.6165 32.4525L29.3748 32.8945L29.9981 34.3555L28.9465 34.8565L28.6211 35.7059L30.9617 38.943L28.354 38.8607L28.4568 40.6652L30.3522 43.0235L29.5582 44.8148L31.4589 47.9554L33.2483 48.2765L31.9497 49.6136L33.6638 52.1761L36.9362 53.4167L35.3525 54.6136L36.4857 55.6327L40.5277 57.1436L38.645 57.6791L40.4037 59.508L42.7326 59.9195L42.9181 61.3348L44.0439 62.1639L46.5276 62.0572L46.5234 63.9065L49.9177 64.1696L49.9145 66.1133L52.2424 66.3105L53.2187 67.4738L54.3477 67.4525L55.6505 67.3793L56.6183 68.2643L58.6091 67.9158L60.8554 68.1089L62.2642 68.6484L61.6981 71.6884L50.8876 74.3911L50.3152 75.3289L60.8363 72.738L49.0166 78.9573L47.2347 80.2568L46.552 81.4913L46.6707 81.7494L50.3799 80.3838L48.6636 83.4767L48.5014 84.9987L48.8778 85.1318L51.6488 83.4838L51.1654 86.5086L51.477 87.6425L52.5148 87.5297L56.9968 83.4086L54.972 88.435L55.2646 89.7082L56.0173 89.5923L58.5762 87.8447L58.6186 89.9581L59.067 90.5017L60.3359 89.9754L62.4211 87.8L63.1027 90.2629L63.937 90.5118L64.7235 89.7965L66.1101 86.8917L68.1019 89.9459L68.9235 89.6878L69.3581 83.1831L71.9256 86.7209L72.1991 86.4243L72.074 85.4438L71.0871 82.2066L72.3326 79.0883L71.8567 76.977L73.8824 74.7335L76.7541 73.9817L82.011 69.4541L83.2873 66.4822L85.4339 65.2863L85.6491 57.9046L87.1321 52.4108L87.1522 47.3834L89.2342 43.2237L90.7872 28.9765L92.7101 24.4815L92.16 24.636L89.795 26.7524L90.5964 23.4441L89.7504 23.5965L87.3844 27.1812L86.8639 25.4153L85.4371 26.2108L83.6551 28.1505L83.4855 31.476L81.6654 29.8036L79.9004 31.7717L79.7827 38.1566L78.1799 34.701L77.9138 34.7274L76.4499 39.7437L70.1659 38.6484L66.8659 39.8311L63.7727 41.787L61.66 45.9985L61.5603 52.865L57.249 47.2147L49.6866 42.3458L38.874 36.6782L38.839 36.6498L38.8358 36.6478Z" fill="url(#paint1_linear_2047_21185)"/>
<path d="M85.4794 44.5314L82.7243 43.4076L79.8293 45.2233L78.4862 47.7452L73.6534 44.3708L65.5948 44.6919L63.9485 47.5247L63.8245 50.5637L64.9959 53.8628C66.6051 55.0943 66.6369 55.1583 68.1093 56.6753L71.6477 58.3548L75.3548 58.9187L78.7067 58.5255L82.1805 55.9102L85.0681 52.8285L85.4158 50.3107L85.4794 44.5334V44.5314ZM82.86 42.4881L86.4207 43.94C86.3751 47.7258 86.4387 49.7041 85.9564 53.2217C84.9112 54.3353 83.8639 55.4479 82.8239 56.5655C81.572 57.5013 80.3254 58.4442 79.0787 59.3861C77.8364 59.5304 76.5919 59.6736 75.3505 59.824L71.3573 59.2174L67.5411 57.4068L65.8513 55.6663L64.1977 54.4003L62.8842 50.6988L63.0231 47.2768L65.033 43.8181C68.0011 43.6982 70.9693 43.5763 73.9375 43.4635L78.148 46.4029L79.1063 44.6045L82.6289 42.3956L82.86 42.4901V42.4881Z" fill="url(#paint2_linear_2047_21185)"/>
<path d="M83.0446 49.3117L81.323 49.455L80.1782 50.2485L79.7202 51.6253L80.2884 51.5704L81.9114 51.1304L83.0446 49.3127V49.3117ZM81.1163 48.57L84.7873 48.2642L82.523 51.8966L80.4676 52.4544L78.3973 52.6555L79.3821 49.6958L80.9912 48.5812L81.1174 48.571L81.1163 48.57Z" fill="url(#paint3_linear_2047_21185)"/>
<path d="M68.6562 47.1975L71.4813 47.5195L72.9495 48.435L75.4565 52.7756C73.9078 52.3631 72.3601 51.9465 70.8103 51.538L68.6615 49.7061L67.9789 47.1202L68.6552 47.1975H68.6562ZM71.159 48.3873L69.2223 48.1668L69.5001 49.2174L71.2757 50.7303L73.5611 51.3389L72.2477 49.065L71.159 48.3873V48.3873Z" fill="url(#paint4_linear_2047_21185)"/>
<path d="M77.7781 54.1228L76.5612 53.9003L76.488 54.3301L76.841 54.9031L77.1855 55.9161L77.6403 55.2405L77.7781 54.1238V54.1228ZM76.2633 52.933L78.8127 53.3994L78.5467 55.5504L76.9078 57.9889L75.9834 55.274L75.5128 54.5079L75.7948 52.8477L76.2654 52.934L76.2633 52.933Z" fill="url(#paint5_linear_2047_21185)"/>
<path fill-rule="evenodd" clip-rule="evenodd" d="M94.3182 52.0349L96.3821 48.3303L101.509 50.0078L94.3182 52.0349Z" fill="#FEFEFE"/>
<path d="M93.9059 51.8243L96.1574 47.7825L103.054 50.0401L93.3822 52.7662L93.9069 51.8233L93.9059 51.8243ZM96.6058 48.8778L95.2553 51.3031L99.962 49.9761L96.6058 48.8768V48.8778Z" fill="#009A9C"/>
<path d="M45.4705 37.1197L48.5958 38.2845L44.0945 39.36L45.4705 37.1197Z" fill="#FEFEFE" stroke="url(#paint6_linear_2047_21185)"/>
<path d="M77.5911 85.4248L75.7378 93.7269L71.5269 78.0113L77.5911 85.4248Z" fill="#FEFEFE" stroke="url(#paint7_linear_2047_21185)"/>
<path d="M67.5427 96.44L67.7321 82.4196L71.0412 99.6101L67.5427 96.44Z" fill="#FEFEFE" stroke="url(#paint8_linear_2047_21185)"/>
<path d="M58.9126 85.4002L64.0295 78.5748L62.1361 92.1605L56.4019 95.7254L58.9126 85.4002Z" fill="#FEFEFE" stroke="url(#paint9_linear_2047_21185)"/>
<path fill-rule="evenodd" clip-rule="evenodd" d="M57.5608 79.3352L47.7722 94.2021L42.7592 94.2356L57.5608 79.3352Z" fill="#FEFEFE"/>
<path d="M57.956 79.574L48.0317 94.6482L41.6597 94.6908L60.4705 75.7546L57.956 79.574V79.574ZM47.5123 93.7561L54.6497 82.9168L43.8572 93.7815L47.5123 93.7571V93.7561Z" fill="#009846"/>
<path fill-rule="evenodd" clip-rule="evenodd" d="M60.1907 65.529L47.5293 71.1387L41.17 68.3445L51.0561 65.0271L60.1907 65.529Z" fill="#FEFEFE"/>
<path d="M60.3867 65.9375L47.5314 71.6325L39.9212 68.2896C43.6102 67.0511 47.2971 65.8023 50.9904 64.575C54.6889 64.768 58.3875 64.9814 62.086 65.1856L60.3867 65.9385V65.9375ZM47.5282 70.6449L58.2952 65.8755L51.1218 65.4813L42.4187 68.4014L47.5272 70.6449H47.5282Z" fill="#009846"/>
<path fill-rule="evenodd" clip-rule="evenodd" d="M41.3153 51.7767L24.0979 45.719L17.6623 36.1519L41.3153 51.7767Z" fill="#FEFEFE"/>
<path d="M41.1541 52.1983L23.7904 46.0888L16 34.5088L44.6301 53.4216L41.1541 52.1983ZM24.4063 45.3481L38.0015 50.1316L19.3243 37.7937L24.4063 45.3481Z" fill="#009846"/>
<path fill-rule="evenodd" clip-rule="evenodd" d="M52.818 57.6565L25.2777 55.8022L21.6608 49.4539L52.818 57.6565Z" fill="#FEFEFE"/>
<path d="M52.786 58.1046L24.9913 56.234L20.7224 48.7437L57.4863 58.4216L52.786 58.1056V58.1046ZM25.5648 55.3724L48.1483 56.8924L22.5987 50.1661L25.5648 55.3724V55.3724Z" fill="#009846"/>
<path fill-rule="evenodd" clip-rule="evenodd" d="M50.9544 59.5758L32.4532 66.7898L29.8168 63.1564L50.9544 59.5758Z" fill="#FEFEFE"/>
<path d="M51.1304 59.9925L32.2826 67.3406L29.0133 62.8364L55.2233 58.3962L51.1304 59.9914V59.9925ZM32.6239 66.2382L46.6856 60.7555L30.6193 63.4775L32.6228 66.2382H32.6239Z" fill="#009846"/>
<path fill-rule="evenodd" clip-rule="evenodd" d="M41.1255 46.284L19.795 28.876L24.9988 28.496L37.8881 40.0963L41.1255 46.284Z" fill="#FEFEFE"/>
<path d="M40.8234 46.6244L18.6279 28.5112L25.1695 28.0326L38.2687 39.8229C39.7008 42.5683 41.1393 45.3106 42.5757 48.0539L40.8245 46.6244H40.8234ZM20.9622 29.2407L39.6775 44.514L37.5086 40.3695L24.8303 28.9582L20.9622 29.2417V29.2407Z" fill="#009846"/>
<path fill-rule="evenodd" clip-rule="evenodd" d="M84.9293 37.361L95.6126 32.9838L100.58 22.0145L84.9293 37.361Z" fill="#FEFEFE"/>
<path d="M86.9084 36.0625L95.2585 32.6404L99.1415 24.0669L86.9084 36.0625ZM95.796 33.3963L82.9512 38.6605L102.021 19.9611C100.002 24.4154 97.9776 28.8678 95.9677 33.3262L95.797 33.3963H95.796Z" fill="#009A9C"/>
<path fill-rule="evenodd" clip-rule="evenodd" d="M91.2143 18.8717L84.1458 22.1901L86.9688 31.1162L91.2143 18.8717Z" fill="#FEFEFE"/>
<path d="M90.4194 19.7435L84.7088 22.4249L86.989 29.6369L90.4204 19.7435H90.4194ZM83.9403 21.7879L92.0095 18L86.9477 32.5946L83.583 21.9555L83.9403 21.7879V21.7879Z" fill="#009A9A"/>
<path fill-rule="evenodd" clip-rule="evenodd" d="M87.7417 41.2097L95.2172 39.3076L96.9006 35.9567L91.4551 37.8963L87.7417 41.2097Z" fill="#FEFEFE"/>
<path d="M89.4303 40.3167L94.8896 38.9267L95.9751 36.7636L91.7073 38.2836L89.4303 40.3157V40.3167ZM95.3369 39.7416L86.054 42.1039C87.7702 40.5717 89.4833 39.0344 91.2038 37.5073C93.4098 36.7178 95.6179 35.9355 97.8249 35.149L95.5458 39.6878L95.3359 39.7406L95.3369 39.7416Z" fill="#009A9C"/>
<path d="M68.0891 27.4728L70.4859 28.5518L70.6555 33.6504L66.7428 32.9442L67.5071 27.2126L68.0869 27.4738L68.0891 27.4728ZM69.57 29.1279L68.2735 28.5447L67.7838 32.2177L69.6844 32.5612L69.57 29.1279Z" fill="url(#paint10_linear_2047_21185)"/>
<path d="M37.569 76.978L38.6556 75.1359L43.1439 75.3238L42.2555 78.499L37.2531 77.5134L37.569 76.978ZM39.1867 76.0554L38.699 76.8825L41.5792 77.4504L41.9375 76.1712L39.1867 76.0564V76.0554Z" fill="#009846"/>
<path fill-rule="evenodd" clip-rule="evenodd" d="M78.0601 79.6451L79.0152 75.2111L81.7237 77.8101L80.9265 79.6908L78.0601 79.6451Z" fill="#FEFEFE"/>
<path d="M77.6021 79.5555L78.7343 74.3055L82.276 77.7053L81.2413 80.1448L77.4898 80.0838L77.6032 79.5555H77.6021ZM79.2982 76.1162L78.6325 79.206L80.6127 79.2375L81.1735 77.9156L79.2982 76.1151V76.1162Z" fill="#009A99"/>
<path fill-rule="evenodd" clip-rule="evenodd" d="M88.6013 64.2639L89.23 63.4236L91.9257 63.9489L91.5642 65.1986L89.6179 65.0859L88.6013 64.2639Z" fill="#FEFEFE"/>
<path d="M88.2217 64.0019L89.0273 62.9269L92.5107 63.6046L91.9139 65.6682L89.4376 65.5239L87.9704 64.3382L88.2227 64.0008L88.2217 64.0019ZM89.4333 63.9196L89.233 64.1878L89.799 64.645L91.2142 64.7273L91.3404 64.2894L89.4333 63.9185V63.9196Z" fill="#009A99"/>
<path d="M68.7262 60.3808L69.2711 61.597L66.8669 64.1057L65.3308 62.5501L66.7397 60.5911L68.5545 59.9988L68.7262 60.3818V60.3808ZM68.1718 61.4172L68.0372 61.1154L67.3333 61.345L66.5298 62.4627L66.8541 62.7919L68.1707 61.4172H68.1718Z" fill="url(#paint11_linear_2047_21185)"/>
<path d="M51.6127 44.0772L54.2207 42.9547L54.3192 43.8043L52.0658 45.2212L51.6127 44.0772Z" fill="#FEFEFE" stroke="url(#paint12_linear_2047_21185)"/>
<path d="M73.2464 71.1244L71.9192 65.8927L75.3167 67.5631L73.645 72.6972L73.2453 71.1244H73.2464ZM73.311 67.5824L73.7573 69.3412L74.1898 68.0142L73.3121 67.5824H73.311Z" fill="#009A99"/>
<path d="M79.9999 62.9665L80.5416 62.176L79.8356 62.3478L79.9999 62.9675V62.9665ZM81.9865 61.7026L79.6173 65.1643L78.695 61.6975L82.6469 60.7373L81.9865 61.7026V61.7026Z" fill="#009A99"/>
<defs>
<linearGradient id="paint0_linear_2047_21185" x1="-0.00190015" y1="60.0009" x2="119.998" y2="60.0009" gradientUnits="userSpaceOnUse">
<stop stop-color="#009846"/>
<stop offset="1" stop-color="#009A9C"/>
</linearGradient>
<linearGradient id="paint1_linear_2047_21185" x1="27.3649" y1="56.9526" x2="94.3108" y2="56.9526" gradientUnits="userSpaceOnUse">
<stop stop-color="#009846"/>
<stop offset="1" stop-color="#009A9C"/>
</linearGradient>
<linearGradient id="paint2_linear_2047_21185" x1="62.8839" y1="51.1099" x2="86.4203" y2="51.1099" gradientUnits="userSpaceOnUse">
<stop stop-color="#009846"/>
<stop offset="1" stop-color="#009A9C"/>
</linearGradient>
<linearGradient id="paint3_linear_2047_21185" x1="78.3972" y1="50.4599" x2="84.7872" y2="50.4599" gradientUnits="userSpaceOnUse">
<stop stop-color="#009846"/>
<stop offset="1" stop-color="#009A9C"/>
</linearGradient>
<linearGradient id="paint4_linear_2047_21185" x1="67.9787" y1="49.948" x2="75.4564" y2="49.948" gradientUnits="userSpaceOnUse">
<stop stop-color="#009846"/>
<stop offset="1" stop-color="#009A9C"/>
</linearGradient>
<linearGradient id="paint5_linear_2047_21185" x1="75.5127" y1="55.4183" x2="78.8127" y2="55.4183" gradientUnits="userSpaceOnUse">
<stop stop-color="#009846"/>
<stop offset="1" stop-color="#009A9C"/>
</linearGradient>
<linearGradient id="paint6_linear_2047_21185" x1="43.0366" y1="38.3172" x2="50.3086" y2="38.3172" gradientUnits="userSpaceOnUse">
<stop stop-color="#009846"/>
<stop offset="1" stop-color="#009A9C"/>
</linearGradient>
<linearGradient id="paint7_linear_2047_21185" x1="70.4423" y1="85.8599" x2="78.132" y2="85.8599" gradientUnits="userSpaceOnUse">
<stop stop-color="#009846"/>
<stop offset="1" stop-color="#009A9C"/>
</linearGradient>
<linearGradient id="paint8_linear_2047_21185" x1="67.0396" y1="89.2536" x2="71.8152" y2="89.2536" gradientUnits="userSpaceOnUse">
<stop stop-color="#009846"/>
<stop offset="1" stop-color="#009A9C"/>
</linearGradient>
<linearGradient id="paint9_linear_2047_21185" x1="55.6269" y1="86.76" x2="64.7921" y2="86.76" gradientUnits="userSpaceOnUse">
<stop stop-color="#009846"/>
<stop offset="1" stop-color="#009A9C"/>
</linearGradient>
<linearGradient id="paint10_linear_2047_21185" x1="66.7427" y1="30.4316" x2="70.6554" y2="30.4316" gradientUnits="userSpaceOnUse">
<stop stop-color="#009846"/>
<stop offset="1" stop-color="#009A9C"/>
</linearGradient>
<linearGradient id="paint11_linear_2047_21185" x1="65.3308" y1="62.0522" x2="69.271" y2="62.0522" gradientUnits="userSpaceOnUse">
<stop stop-color="#009846"/>
<stop offset="1" stop-color="#009A9C"/>
</linearGradient>
<linearGradient id="paint12_linear_2047_21185" x1="50.969" y1="44.0974" x2="54.852" y2="44.0974" gradientUnits="userSpaceOnUse">
<stop stop-color="#009846"/>
<stop offset="1" stop-color="#009A9C"/>
</linearGradient>
</defs>
</svg>
