<svg width="120" height="120" viewBox="0 0 120 120" fill="none" xmlns="http://www.w3.org/2000/svg">
<rect width="120" height="120" rx="60" fill="url(#paint0_linear_2047_21185)"/>
<path fill-rule="evenodd" clip-rule="evenodd" d="M29.6741 33.148L37.1411 39.3074L47.9283 44.9607L55.5777 49.8855L59.1109 54.5156L59.1925 48.8918L61.4059 44.4801L64.6518 42.4277L68.1203 41.184L74.1118 42.2285L75.5471 37.3108L76.4672 37.2214L77.3502 39.1265L77.4329 34.6L79.6304 32.1503L81.0657 33.4701L81.194 30.9686L83.1329 28.8583L85.148 27.7345L85.5477 29.0909L87.4621 26.1911L89.2123 25.8751L88.5953 28.4183L89.9183 27.2356L91.5094 26.7865L89.243 32.0842L87.689 46.3445L85.6166 50.485L85.5975 55.4687L84.1134 60.9676L83.8929 68.5484L81.6583 69.792L80.4011 72.7203L74.9874 77.384L72.1432 78.1277L70.3634 80.0989L70.8192 82.1229L69.5789 85.2269L70.5351 88.3624L70.6899 89.5675L69.8811 90.4454L67.7397 87.4947L67.3708 93.018L65.8995 93.4803L64.1737 90.8355L63.1105 93.0627L62.061 94.0188L60.7179 93.6175L60.1879 91.7063L58.6158 93.3472L56.925 94.0493L56.1565 93.1166L56.1279 91.7022L54.2017 93.018L52.9042 93.2161L52.4855 91.3984L53.8042 88.1267L50.7258 90.9574L49.1304 91.1312L48.6894 89.5299L49.0329 87.3779L46.9308 88.6276L46.0001 88.2994L46.2089 86.3415L47.3792 84.2322L44.4216 85.3214L44.0326 84.474L44.87 82.9601L46.7633 81.5793L55.3561 77.0578L47.3463 79.03L48.5834 77.004L59.29 74.3267L59.7363 71.9288L58.7462 71.5498L56.6324 71.3679L54.4678 71.7469L53.4745 70.8396L52.3731 70.9016L50.9982 70.927L50.0039 69.7422L47.447 69.5258L47.4502 67.5852L44.0559 67.322L44.0591 65.5266L41.8944 65.6191L40.4771 64.5766L40.3107 63.3005L38.1662 62.9225L35.7927 60.4545L37.085 60.0877L34.2323 59.0208L32.6359 57.5841L34.0065 56.5488L31.3511 55.5419L29.3603 52.5638L30.3271 51.5671L29.1621 51.3578L27.0367 47.8453L27.8147 46.0895L25.9978 43.8278L25.8589 41.3964L28.0469 41.4655L26.0974 38.7688L26.5713 37.5343L27.4013 37.1381L26.8607 35.87L27.467 34.7605L28.9225 35.8843L28.5865 33.7089L29.6741 33.148Z" fill="#FEFEFE"/>
<path d="M29.9783 32.8067L37.4093 38.9365C45.3089 43.0769 48.6841 44.9069 55.9073 49.5573L58.6624 53.1674L58.726 48.7862C59.4914 47.2468 60.2663 45.7095 61.0402 44.1743L64.4387 42.0253L68.0768 40.7207L73.7757 41.7144L75.1824 36.8943L76.7555 36.7429L76.9198 37.0964L76.9686 34.4303L79.5975 31.499L80.6481 32.4643L80.7339 30.7888C81.4314 30.0278 82.1268 29.2637 82.8297 28.5077C83.6947 28.019 84.566 27.5394 85.4342 27.0558L85.713 28.0007L87.1759 25.7857L89.8313 25.3062L89.3999 27.0842L89.6797 26.8343L92.3119 26.0926L89.702 32.193L88.1469 46.4655L86.084 50.5866L86.065 55.5277L84.5798 61.0306L84.354 68.8106L82.0304 70.104L80.7933 72.9865C78.9329 74.5817 77.0704 76.18 75.2206 77.7864L72.404 78.523L70.8701 80.2219L71.3068 82.1585L70.0729 85.2473C70.6867 87.2611 70.939 87.8331 71.1817 89.7108L69.8365 91.1698L68.1213 88.8075L67.8182 93.3493L65.697 94.0158L64.2373 91.7785L63.4974 93.329L62.1829 94.5249L60.331 93.9721L59.9547 92.6137L58.8946 93.7201L56.7808 94.598L55.6922 93.2761L55.6773 92.5608L54.3851 93.4438L52.5427 93.7262L51.9989 91.3639L52.6095 89.848L50.9357 91.3873L48.7806 91.621L48.2113 89.5533L48.4159 88.2731L46.9827 89.1255L45.4986 88.6013L45.753 86.2064L46.3774 85.0806L44.1725 85.8925L43.5131 84.4558L44.5054 82.6614C47.1746 80.6974 48.6746 80.0603 51.8759 78.3757L46.3785 79.7301L48.2792 76.6159L58.8819 73.965L59.2094 72.2082L58.637 71.9898L56.6557 71.8191L54.3183 72.2286L53.2996 71.2989C52.4463 71.3466 51.6353 71.3629 50.7777 71.3791L49.7654 70.1731L46.9795 69.9363L46.9817 67.9987L43.5873 67.7356L43.5905 65.9951L41.7439 66.0743L40.0351 64.8175L39.8867 63.6815L37.9266 63.335L34.9394 60.229L35.6422 60.0288L33.979 59.407L31.9193 57.5537L33.0769 56.6778L31.0394 55.9056L28.7698 52.512L29.4059 51.8567L28.8653 51.7591L26.5151 47.8758L27.2783 46.1536L25.5398 43.9894L25.366 40.931L27.1342 40.9869L25.5748 38.8309L26.196 37.2092L26.8045 36.9186L26.3466 35.8457L27.3176 34.0676L28.2833 34.8134L28.0744 33.462L29.7356 32.6055L29.9783 32.8056V32.8067ZM36.8358 39.6478L29.6126 33.6886L29.0974 33.9548L29.5617 36.9552L27.6165 35.4525L27.3748 35.8945L27.9981 37.3555L26.9465 37.8565L26.6211 38.7059L28.9617 41.943L26.354 41.8607L26.4568 43.6652L28.3522 46.0235L27.5582 47.8148L29.4589 50.9554L31.2483 51.2765L29.9497 52.6136L31.6638 55.1761L34.9362 56.4167L33.3525 57.6136L34.4857 58.6327L38.5277 60.1436L36.645 60.6791L38.4037 62.508L40.7326 62.9195L40.9181 64.3348L42.0439 65.1639L44.5276 65.0572L44.5234 66.9065L47.9177 67.1696L47.9145 69.1133L50.2424 69.3105L51.2187 70.4738L52.3477 70.4525L53.6505 70.3793L54.6183 71.2643L56.6091 70.9158L58.8554 71.1089L60.2642 71.6484L59.6981 74.6884L48.8876 77.3911L48.3152 78.3289L58.8363 75.738L47.0166 81.9573L45.2347 83.2568L44.552 84.4913L44.6707 84.7494L48.3799 83.3838L46.6636 86.4767L46.5014 87.9987L46.8778 88.1318L49.6488 86.4838L49.1654 89.5086L49.477 90.6425L50.5148 90.5297L54.9968 86.4086L52.972 91.435L53.2646 92.7082L54.0173 92.5923L56.5762 90.8447L56.6186 92.9581L57.067 93.5017L58.3359 92.9754L60.4211 90.8L61.1027 93.2629L61.937 93.5118L62.7235 92.7965L64.1101 89.8917L66.1019 92.9459L66.9235 92.6878L67.3581 86.1831L69.9256 89.7209L70.1991 89.4243L70.074 88.4438L69.0871 85.2066L70.3326 82.0883L69.8567 79.977L71.8824 77.7335L74.7541 76.9817L80.011 72.4541L81.2873 69.4822L83.4339 68.2863L83.6491 60.9046L85.1321 55.4108L85.1522 50.3834L87.2342 46.2237L88.7872 31.9765L90.7101 27.4815L90.16 27.636L87.795 29.7524L88.5964 26.4441L87.7504 26.5965L85.3844 30.1812L84.8639 28.4153L83.4371 29.2108L81.6551 31.1505L81.4855 34.476L79.6654 32.8036L77.9004 34.7717L77.7827 41.1566L76.1799 37.701L75.9138 37.7274L74.4499 42.7437L68.1659 41.6484L64.8659 42.8311L61.7727 44.787L59.66 48.9985L59.5603 55.865L55.249 50.2147L47.6866 45.3458L36.874 39.6782L36.839 39.6498L36.8358 39.6478Z" fill="url(#paint1_linear_2047_21185)"/>
<path d="M83.4794 47.5314L80.7243 46.4076L77.8293 48.2233L76.4862 50.7452L71.6534 47.3708L63.5948 47.6919L61.9485 50.5247L61.8245 53.5637L62.9959 56.8628C64.6051 58.0943 64.6369 58.1583 66.1093 59.6753L69.6477 61.3548L73.3548 61.9187L76.7067 61.5255L80.1805 58.9102L83.0681 55.8285L83.4158 53.3107L83.4794 47.5334V47.5314ZM80.86 45.4881L84.4207 46.94C84.3751 50.7258 84.4387 52.7041 83.9564 56.2217C82.9112 57.3353 81.8639 58.4479 80.8239 59.5655C79.572 60.5013 78.3254 61.4442 77.0787 62.3861C75.8364 62.5304 74.5919 62.6736 73.3505 62.824L69.3573 62.2174L65.5411 60.4068L63.8513 58.6663L62.1977 57.4003L60.8842 53.6988L61.0231 50.2768L63.033 46.8181C66.0011 46.6982 68.9693 46.5763 71.9375 46.4635L76.148 49.4029L77.1063 47.6045L80.6289 45.3956L80.86 45.4901V45.4881Z" fill="url(#paint2_linear_2047_21185)"/>
<path d="M81.0446 52.3117L79.323 52.455L78.1782 53.2485L77.7202 54.6253L78.2884 54.5704L79.9114 54.1304L81.0446 52.3127V52.3117ZM79.1163 51.57L82.7873 51.2642L80.523 54.8966L78.4676 55.4544L76.3973 55.6555L77.3821 52.6958L78.9912 51.5812L79.1174 51.571L79.1163 51.57Z" fill="url(#paint3_linear_2047_21185)"/>
<path d="M66.6562 50.1975L69.4813 50.5195L70.9495 51.435L73.4565 55.7756C71.9078 55.3631 70.3601 54.9465 68.8103 54.538L66.6615 52.7061L65.9789 50.1202L66.6552 50.1975H66.6562ZM69.159 51.3873L67.2223 51.1668L67.5001 52.2174L69.2757 53.7303L71.5611 54.3389L70.2477 52.065L69.159 51.3873V51.3873Z" fill="url(#paint4_linear_2047_21185)"/>
<path d="M75.7781 57.1228L74.5612 56.9003L74.488 57.3301L74.841 57.9031L75.1855 58.9161L75.6403 58.2405L75.7781 57.1238V57.1228ZM74.2633 55.933L76.8127 56.3994L76.5467 58.5504L74.9078 60.9889L73.9834 58.274L73.5128 57.5079L73.7948 55.8477L74.2654 55.934L74.2633 55.933Z" fill="url(#paint5_linear_2047_21185)"/>
<path fill-rule="evenodd" clip-rule="evenodd" d="M92.3182 55.0349L94.3821 51.3303L99.5086 53.0078L92.3182 55.0349Z" fill="#FEFEFE"/>
<path d="M91.9059 54.8243L94.1574 50.7825L101.054 53.0401L91.3822 55.7662L91.9069 54.8233L91.9059 54.8243ZM94.6058 51.8778L93.2553 54.3031L97.962 52.9761L94.6058 51.8768V51.8778Z" fill="#009A9C"/>
<path d="M43.4705 40.1197L46.5958 41.2845L42.0945 42.36L43.4705 40.1197Z" fill="#FEFEFE" stroke="url(#paint6_linear_2047_21185)"/>
<path d="M75.5911 88.4248L73.7378 96.7269L69.5269 81.0113L75.5911 88.4248Z" fill="#FEFEFE" stroke="url(#paint7_linear_2047_21185)"/>
<path d="M65.5427 99.44L65.7321 85.4196L69.0412 102.61L65.5427 99.44Z" fill="#FEFEFE" stroke="url(#paint8_linear_2047_21185)"/>
<path d="M56.9126 88.4002L62.0295 81.5748L60.1361 95.1605L54.4019 98.7254L56.9126 88.4002Z" fill="#FEFEFE" stroke="url(#paint9_linear_2047_21185)"/>
<path fill-rule="evenodd" clip-rule="evenodd" d="M55.5608 82.3352L45.7722 97.2021L40.7592 97.2356L55.5608 82.3352Z" fill="#FEFEFE"/>
<path d="M55.956 82.574L46.0317 97.6482L39.6597 97.6908L58.4705 78.7546L55.956 82.574V82.574ZM45.5123 96.7561L52.6497 85.9168L41.8572 96.7815L45.5123 96.7571V96.7561Z" fill="#009846"/>
<path fill-rule="evenodd" clip-rule="evenodd" d="M58.1907 68.529L45.5293 74.1387L39.17 71.3445L49.0561 68.0271L58.1907 68.529Z" fill="#FEFEFE"/>
<path d="M58.3867 68.9375L45.5314 74.6325L37.9212 71.2896C41.6102 70.0511 45.2971 68.8023 48.9904 67.575C52.6889 67.768 56.3875 67.9814 60.086 68.1856L58.3867 68.9385V68.9375ZM45.5282 73.6449L56.2952 68.8755L49.1218 68.4813L40.4187 71.4014L45.5272 73.6449H45.5282Z" fill="#009846"/>
<path fill-rule="evenodd" clip-rule="evenodd" d="M39.3153 54.7767L22.0979 48.719L15.6623 39.1519L39.3153 54.7767Z" fill="#FEFEFE"/>
<path d="M39.1541 55.1983L21.7904 49.0888L14 37.5088L42.6301 56.4216L39.1541 55.1983ZM22.4063 48.3481L36.0015 53.1316L17.3243 40.7937L22.4063 48.3481Z" fill="#009846"/>
<path fill-rule="evenodd" clip-rule="evenodd" d="M50.818 60.6565L23.2777 58.8022L19.6608 52.4539L50.818 60.6565Z" fill="#FEFEFE"/>
<path d="M50.786 61.1046L22.9913 59.234L18.7224 51.7437L55.4863 61.4216L50.786 61.1056V61.1046ZM23.5648 58.3724L46.1483 59.8924L20.5987 53.1661L23.5648 58.3724V58.3724Z" fill="#009846"/>
<path fill-rule="evenodd" clip-rule="evenodd" d="M48.9544 62.5758L30.4532 69.7898L27.8168 66.1564L48.9544 62.5758Z" fill="#FEFEFE"/>
<path d="M49.1304 62.9925L30.2826 70.3406L27.0133 65.8364L53.2233 61.3962L49.1304 62.9914V62.9925ZM30.6239 69.2382L44.6856 63.7555L28.6193 66.4775L30.6228 69.2382H30.6239Z" fill="#009846"/>
<path fill-rule="evenodd" clip-rule="evenodd" d="M39.1255 49.284L17.795 31.876L22.9988 31.496L35.8881 43.0963L39.1255 49.284Z" fill="#FEFEFE"/>
<path d="M38.8234 49.6244L16.6279 31.5112L23.1695 31.0326L36.2687 42.8229C37.7008 45.5683 39.1393 48.3106 40.5757 51.0539L38.8245 49.6244H38.8234ZM18.9622 32.2407L37.6775 47.514L35.5086 43.3695L22.8303 31.9582L18.9622 32.2417V32.2407Z" fill="#009846"/>
<path fill-rule="evenodd" clip-rule="evenodd" d="M82.9293 40.361L93.6126 35.9838L98.58 25.0145L82.9293 40.361Z" fill="#FEFEFE"/>
<path d="M84.9084 39.0625L93.2585 35.6404L97.1415 27.0669L84.9084 39.0625ZM93.796 36.3963L80.9512 41.6605L100.021 22.9611C98.0023 27.4154 95.9776 31.8678 93.9677 36.3262L93.797 36.3963H93.796Z" fill="#009A9C"/>
<path fill-rule="evenodd" clip-rule="evenodd" d="M89.2143 21.8717L82.1458 25.1901L84.9688 34.1162L89.2143 21.8717Z" fill="#FEFEFE"/>
<path d="M88.4194 22.7435L82.7088 25.4249L84.989 32.6369L88.4204 22.7435H88.4194ZM81.9403 24.7879L90.0095 21L84.9477 35.5946L81.583 24.9555L81.9403 24.7879V24.7879Z" fill="#009A9A"/>
<path fill-rule="evenodd" clip-rule="evenodd" d="M85.7417 44.2097L93.2172 42.3076L94.9006 38.9567L89.4551 40.8963L85.7417 44.2097Z" fill="#FEFEFE"/>
<path d="M87.4303 43.3167L92.8896 41.9267L93.9751 39.7636L89.7073 41.2836L87.4303 43.3157V43.3167ZM93.3369 42.7416L84.054 45.1039C85.7702 43.5717 87.4833 42.0344 89.2038 40.5073C91.4098 39.7178 93.6179 38.9355 95.8249 38.149L93.5458 42.6878L93.3359 42.7406L93.3369 42.7416Z" fill="#009A9C"/>
<path d="M66.0891 30.4728L68.4859 31.5518L68.6555 36.6504L64.7428 35.9442L65.5071 30.2126L66.0869 30.4738L66.0891 30.4728ZM67.57 32.1279L66.2735 31.5447L65.7838 35.2177L67.6844 35.5612L67.57 32.1279Z" fill="url(#paint10_linear_2047_21185)"/>
<path d="M35.569 79.978L36.6556 78.1359L41.1439 78.3238L40.2555 81.499L35.2531 80.5134L35.569 79.978ZM37.1867 79.0554L36.699 79.8825L39.5792 80.4504L39.9375 79.1712L37.1867 79.0564V79.0554Z" fill="#009846"/>
<path fill-rule="evenodd" clip-rule="evenodd" d="M76.0601 82.6451L77.0152 78.2111L79.7237 80.8101L78.9265 82.6908L76.0601 82.6451Z" fill="#FEFEFE"/>
<path d="M75.6021 82.5555L76.7343 77.3055L80.276 80.7053L79.2413 83.1448L75.4898 83.0838L75.6032 82.5555H75.6021ZM77.2982 79.1162L76.6325 82.206L78.6127 82.2375L79.1735 80.9156L77.2982 79.1151V79.1162Z" fill="#009A99"/>
<path fill-rule="evenodd" clip-rule="evenodd" d="M86.6013 67.2639L87.23 66.4236L89.9257 66.9489L89.5642 68.1986L87.6179 68.0859L86.6013 67.2639Z" fill="#FEFEFE"/>
<path d="M86.2217 67.0019L87.0273 65.9269L90.5107 66.6046L89.9139 68.6682L87.4376 68.5239L85.9704 67.3382L86.2227 67.0008L86.2217 67.0019ZM87.4333 66.9196L87.233 67.1878L87.799 67.645L89.2142 67.7273L89.3404 67.2894L87.4333 66.9185V66.9196Z" fill="#009A99"/>
<path d="M66.7262 63.3808L67.2711 64.597L64.8669 67.1057L63.3308 65.5501L64.7397 63.5911L66.5545 62.9988L66.7262 63.3818V63.3808ZM66.1718 64.4172L66.0372 64.1154L65.3333 64.345L64.5298 65.4627L64.8541 65.7919L66.1707 64.4172H66.1718Z" fill="url(#paint11_linear_2047_21185)"/>
<path d="M49.6127 47.0772L52.2207 45.9547L52.3192 46.8043L50.0658 48.2212L49.6127 47.0772Z" fill="#FEFEFE" stroke="url(#paint12_linear_2047_21185)"/>
<path d="M71.2464 74.1244L69.9192 68.8927L73.3167 70.5631L71.645 75.6972L71.2453 74.1244H71.2464ZM71.311 70.5824L71.7573 72.3412L72.1898 71.0142L71.3121 70.5824H71.311Z" fill="#009A99"/>
<path d="M77.9999 65.9665L78.5416 65.176L77.8356 65.3478L77.9999 65.9675V65.9665ZM79.9865 64.7026L77.6173 68.1643L76.695 64.6975L80.6469 63.7373L79.9865 64.7026V64.7026Z" fill="#009A99"/>
<defs>
<linearGradient id="paint0_linear_2047_21185" x1="-0.00190015" y1="60.0009" x2="119.998" y2="60.0009" gradientUnits="userSpaceOnUse">
<stop stop-color="#009846"/>
<stop offset="1" stop-color="#009A9C"/>
</linearGradient>
<linearGradient id="paint1_linear_2047_21185" x1="25.3649" y1="59.9526" x2="92.3108" y2="59.9526" gradientUnits="userSpaceOnUse">
<stop stop-color="#009846"/>
<stop offset="1" stop-color="#009A9C"/>
</linearGradient>
<linearGradient id="paint2_linear_2047_21185" x1="60.8839" y1="54.1099" x2="84.4203" y2="54.1099" gradientUnits="userSpaceOnUse">
<stop stop-color="#009846"/>
<stop offset="1" stop-color="#009A9C"/>
</linearGradient>
<linearGradient id="paint3_linear_2047_21185" x1="76.3972" y1="53.4599" x2="82.7872" y2="53.4599" gradientUnits="userSpaceOnUse">
<stop stop-color="#009846"/>
<stop offset="1" stop-color="#009A9C"/>
</linearGradient>
<linearGradient id="paint4_linear_2047_21185" x1="65.9787" y1="52.948" x2="73.4564" y2="52.948" gradientUnits="userSpaceOnUse">
<stop stop-color="#009846"/>
<stop offset="1" stop-color="#009A9C"/>
</linearGradient>
<linearGradient id="paint5_linear_2047_21185" x1="73.5127" y1="58.4183" x2="76.8127" y2="58.4183" gradientUnits="userSpaceOnUse">
<stop stop-color="#009846"/>
<stop offset="1" stop-color="#009A9C"/>
</linearGradient>
<linearGradient id="paint6_linear_2047_21185" x1="41.0366" y1="41.3172" x2="48.3086" y2="41.3172" gradientUnits="userSpaceOnUse">
<stop stop-color="#009846"/>
<stop offset="1" stop-color="#009A9C"/>
</linearGradient>
<linearGradient id="paint7_linear_2047_21185" x1="68.4423" y1="88.8599" x2="76.132" y2="88.8599" gradientUnits="userSpaceOnUse">
<stop stop-color="#009846"/>
<stop offset="1" stop-color="#009A9C"/>
</linearGradient>
<linearGradient id="paint8_linear_2047_21185" x1="65.0396" y1="92.2536" x2="69.8152" y2="92.2536" gradientUnits="userSpaceOnUse">
<stop stop-color="#009846"/>
<stop offset="1" stop-color="#009A9C"/>
</linearGradient>
<linearGradient id="paint9_linear_2047_21185" x1="53.6269" y1="89.76" x2="62.7921" y2="89.76" gradientUnits="userSpaceOnUse">
<stop stop-color="#009846"/>
<stop offset="1" stop-color="#009A9C"/>
</linearGradient>
<linearGradient id="paint10_linear_2047_21185" x1="64.7427" y1="33.4316" x2="68.6554" y2="33.4316" gradientUnits="userSpaceOnUse">
<stop stop-color="#009846"/>
<stop offset="1" stop-color="#009A9C"/>
</linearGradient>
<linearGradient id="paint11_linear_2047_21185" x1="63.3308" y1="65.0522" x2="67.271" y2="65.0522" gradientUnits="userSpaceOnUse">
<stop stop-color="#009846"/>
<stop offset="1" stop-color="#009A9C"/>
</linearGradient>
<linearGradient id="paint12_linear_2047_21185" x1="48.969" y1="47.0974" x2="52.852" y2="47.0974" gradientUnits="userSpaceOnUse">
<stop stop-color="#009846"/>
<stop offset="1" stop-color="#009A9C"/>
</linearGradient>
</defs>
</svg>
